<svg id="Layer_1" data-name="Layer 1" xmlns="http://www.w3.org/2000/svg" viewBox="0 0 24 24" stroke-width="1.5" width="24" height="24" color="#000000"><defs><style>.cls-637b87aff95e86b59c57a1c3-1{fill:none;stroke:currentColor;stroke-miterlimit:10;}.cls-637b87aff95e86b59c57a1c3-2{fill:currentColor;}</style></defs><path class="cls-637b87aff95e86b59c57a1c3-1" d="M2.45,18.68H7.23a0,0,0,0,1,0,0v2.86a1,1,0,0,1-1,1H3.41a1,1,0,0,1-1-1V18.68A0,0,0,0,1,2.45,18.68Z"></path><path class="cls-637b87aff95e86b59c57a1c3-1" d="M16.77,18.68h4.77a0,0,0,0,1,0,0v2.86a1,1,0,0,1-1,1H17.73a1,1,0,0,1-1-1V18.68A0,0,0,0,1,16.77,18.68Z"></path><path class="cls-637b87aff95e86b59c57a1c3-1" d="M5.32,11H18.68a3.82,3.82,0,0,1,3.82,3.82v3.82a0,0,0,0,1,0,0H1.5a0,0,0,0,1,0,0V14.86A3.82,3.82,0,0,1,5.32,11Z"></path><path class="cls-637b87aff95e86b59c57a1c3-1" d="M16.29,4.36H7.71A1.91,1.91,0,0,0,5.88,5.75l-1.52,5.3H19.64l-1.52-5.3A1.91,1.91,0,0,0,16.29,4.36Z"></path><circle class="cls-637b87aff95e86b59c57a1c3-2" cx="4.84" cy="15.34" r="1.43"></circle><circle class="cls-637b87aff95e86b59c57a1c3-2" cx="19.16" cy="15.34" r="1.43"></circle><path class="cls-637b87aff95e86b59c57a1c3-1" d="M14.86,15.82h0Z"></path><line class="cls-637b87aff95e86b59c57a1c3-1" x1="22.5" y1="9.14" x2="19.09" y2="9.14"></line><line class="cls-637b87aff95e86b59c57a1c3-1" x1="4.91" y1="9.14" x2="1.5" y2="9.14"></line><polygon class="cls-637b87aff95e86b59c57a1c3-1" points="14.86 4.36 9.14 4.36 10.09 1.5 13.91 1.5 14.86 4.36"></polygon></svg>