<svg id="Layer_1" data-name="Layer 1" xmlns="http://www.w3.org/2000/svg" viewBox="0 0 24 24" stroke-width="1.5" width="24" height="24" color="#000000"><defs><style>.cls-637b83faf95e86b59c57a0e5-1{fill:none;stroke:currentColor;stroke-miterlimit:10;}</style></defs><path class="cls-637b83faf95e86b59c57a0e5-1" d="M12,12h0a9.55,9.55,0,0,1,9.55,9.55v1a0,0,0,0,1,0,0H2.45a0,0,0,0,1,0,0v-1A9.55,9.55,0,0,1,12,12Z"></path><path class="cls-637b83faf95e86b59c57a0e5-1" d="M7.23,1.5h9.55a0,0,0,0,1,0,0V7.23A4.77,4.77,0,0,1,12,12h0A4.77,4.77,0,0,1,7.23,7.23V1.5A0,0,0,0,1,7.23,1.5Z"></path><polyline class="cls-637b83faf95e86b59c57a0e5-1" points="7.23 4.36 12 5.32 16.77 4.07"></polyline><line class="cls-637b83faf95e86b59c57a0e5-1" x1="3.41" y1="1.5" x2="20.59" y2="1.5"></line><line class="cls-637b83faf95e86b59c57a0e5-1" x1="16.77" y1="12.95" x2="13.35" y2="16.38"></line><line class="cls-637b83faf95e86b59c57a0e5-1" x1="10.65" y1="16.38" x2="7.23" y2="12.95"></line><circle class="cls-637b83faf95e86b59c57a0e5-1" cx="12" cy="17.73" r="1.91"></circle></svg>