<svg id="Layer_1" data-name="Layer 1" xmlns="http://www.w3.org/2000/svg" viewBox="0 0 24 24" stroke-width="1.5" width="24" height="24" color="#000000" data-darkreader-inline-color="" style="--darkreader-inline-color: #e8e6e3;"><defs><style>.cls-637b87aff95e86b59c57a1ae-1{fill:none;stroke:currentColor;stroke-miterlimit:10;}</style><style class="darkreader darkreader--sync" media="screen"></style></defs><circle class="cls-637b87aff95e86b59c57a1ae-1" cx="19.64" cy="16.75" r="2.86"></circle><circle class="cls-637b87aff95e86b59c57a1ae-1" cx="4.36" cy="16.75" r="2.86"></circle><path class="cls-637b87aff95e86b59c57a1ae-1" d="M17.73,7.2h-.84a4.89,4.89,0,0,0-3.46,1.44A4.9,4.9,0,0,1,10,10.07H1.5"></path><line class="cls-637b87aff95e86b59c57a1ae-1" x1="22.5" y1="11.98" x2="18.68" y2="11.02"></line><polyline class="cls-637b87aff95e86b59c57a1ae-1" points="19.64 16.75 16.77 3.39 13.91 3.39"></polyline><line class="cls-637b87aff95e86b59c57a1ae-1" x1="11.05" y1="16.75" x2="7.23" y2="16.75"></line><path class="cls-637b87aff95e86b59c57a1ae-1" d="M4.36,10.07h0a5,5,0,0,1,4.29,2.48l2.4,4.2h2.86l.18-.92a6.19,6.19,0,0,1,4.33-4.73l.26-.08"></path></svg>